# xmcd
#
# Track frame offsets: 
#        150
#        20415
#        36862
#        55577
#        73995
#        92100
#        105112
#        121980
#        140770
#        157502
#        173565
#        192560
#        213102
#        230902
#        244722
#        262087
#
# Disc length: 3735 seconds
#
# Revision: 0
# Processed by: cddbd v1.5.2PL0 Copyright (c) Steve Scherf et al.
# Submitted via: ExactAudioCopyFreeDBPlugin 1.0
#
DISCID=d90e9510
DTITLE=蔡楓華 - 白金珍藏版
DYEAR=1983
DGENRE=Oldies
TTITLE0=叛逆
TTITLE1=誘惑
TTITLE2=絕對空虛
TTITLE3=愛不是遊戲
TTITLE4=高温境界
TTITLE5=愛的火花
TTITLE6=何必曾相識
TTITLE7=突爆的光芒
TTITLE8=一水隔天涯
TTITLE9=遠飛的你
TTITLE10=破碎
TTITLE11=風中追風
TTITLE12=月蝕
TTITLE13=倩影
TTITLE14=十年
TTITLE15=人之初
EXTD=
EXTT0=
EXTT1=
EXTT2=
EXTT3=
EXTT4=
EXTT5=
EXTT6=
EXTT7=
EXTT8=
EXTT9=
EXTT10=
EXTT11=
EXTT12=
EXTT13=
EXTT14=
EXTT15=
PLAYORDER=
